<svg width="94" height="54" viewBox="0 0 94 54" fill="none" xmlns="http://www.w3.org/2000/svg">
<path d="M41.2931 6.70588V6.20588H40.7931H9.41379H8.91379V6.70588V19C8.91379 19.6914 8.52862 20.4055 7.74508 20.9636C6.95947 21.5233 5.8676 21.8529 4.7069 21.8529C3.5462 21.8529 2.45432 21.5233 1.66871 20.9636C0.885173 20.4055 0.5 19.6914 0.5 19V3.35294C0.5 2.66158 0.885174 1.94745 1.66871 1.38929C2.45432 0.829668 3.5462 0.5 4.7069 0.5H45.5C46.6607 0.5 47.7526 0.829668 48.5382 1.38929C49.3217 1.94745 49.7069 2.66158 49.7069 3.35294V31.2941V31.7941H50.2069H81.5862H82.0862V31.2941V19C82.0862 18.3086 82.4714 17.5945 83.2549 17.0364C84.0405 16.4767 85.1324 16.1471 86.2931 16.1471C87.4538 16.1471 88.5457 16.4767 89.3313 17.0364C90.1148 17.5945 90.5 18.3086 90.5 19V34.6471C90.5 35.3384 90.1148 36.0526 89.3313 36.6107C88.5457 37.1703 87.4538 37.5 86.2931 37.5H45.5C44.3393 37.5 43.2474 37.1703 42.4618 36.6107C41.6783 36.0526 41.2931 35.3384 41.2931 34.6471V6.70588Z" fill="url(#paint0_linear_321_2)" stroke="white"/>
<path d="M0.55727 51V49.724H1.56927V44.576H0.55727V43.3H3.72527C4.75927 43.3 5.54394 43.564 6.07927 44.092C6.62194 44.6127 6.89327 45.39 6.89327 46.424V47.876C6.89327 48.91 6.62194 49.691 6.07927 50.219C5.54394 50.7397 4.75927 51 3.72527 51H0.55727ZM3.02127 49.68H3.74727C4.33394 49.68 4.76294 49.526 5.03427 49.218C5.3056 48.91 5.44127 48.4773 5.44127 47.92V46.38C5.44127 45.8153 5.3056 45.3827 5.03427 45.082C4.76294 44.774 4.33394 44.62 3.74727 44.62H3.02127V49.68ZM9.84144 51.154C9.45277 51.154 9.10444 51.088 8.79644 50.956C8.48844 50.8167 8.24277 50.6187 8.05944 50.362C7.88344 50.098 7.79544 49.779 7.79544 49.405C7.79544 49.031 7.88344 48.7193 8.05944 48.47C8.24277 48.2133 8.49211 48.0227 8.80744 47.898C9.13011 47.766 9.49677 47.7 9.90744 47.7H11.4034V47.392C11.4034 47.1353 11.3228 46.9263 11.1614 46.765C11.0001 46.5963 10.7434 46.512 10.3914 46.512C10.0468 46.512 9.79011 46.5927 9.62144 46.754C9.45277 46.908 9.34277 47.1097 9.29144 47.359L8.01544 46.93C8.10344 46.6513 8.24277 46.3983 8.43344 46.171C8.63144 45.9363 8.89177 45.7493 9.21444 45.61C9.54444 45.4633 9.94411 45.39 10.4134 45.39C11.1321 45.39 11.7004 45.5697 12.1184 45.929C12.5364 46.2883 12.7454 46.809 12.7454 47.491V49.526C12.7454 49.746 12.8481 49.856 13.0534 49.856H13.4934V51H12.5694C12.2981 51 12.0744 50.934 11.8984 50.802C11.7224 50.67 11.6344 50.494 11.6344 50.274V50.263H11.4254C11.3961 50.351 11.3301 50.4683 11.2274 50.615C11.1248 50.7543 10.9634 50.879 10.7434 50.989C10.5234 51.099 10.2228 51.154 9.84144 51.154ZM10.0834 50.032C10.4721 50.032 10.7874 49.9257 11.0294 49.713C11.2788 49.493 11.4034 49.2033 11.4034 48.844V48.734H10.0064C9.74977 48.734 9.54811 48.789 9.40144 48.899C9.25477 49.009 9.18144 49.163 9.18144 49.361C9.18144 49.559 9.25844 49.7203 9.41244 49.845C9.56644 49.9697 9.79011 50.032 10.0834 50.032ZM14.5068 51V45.544H15.8708V46.16H16.0688C16.1495 45.94 16.2815 45.7787 16.4648 45.676C16.6555 45.5733 16.8755 45.522 17.1248 45.522H17.7848V46.754H17.1028C16.7508 46.754 16.4611 46.8493 16.2338 47.04C16.0065 47.2233 15.8928 47.5093 15.8928 47.898V51H14.5068ZM18.8681 51V43.3H20.2541V47.557H20.4521L22.2561 45.544H24.0601L21.5411 48.184L24.1481 51H22.3661L20.4521 48.833H20.2541V51H18.8681ZM30.1361 51.154C29.4248 51.154 28.8418 51 28.3871 50.692C27.9324 50.384 27.6574 49.944 27.5621 49.372L28.8381 49.042C28.8894 49.2987 28.9738 49.5003 29.0911 49.647C29.2158 49.7937 29.3661 49.9 29.5421 49.966C29.7254 50.0247 29.9234 50.054 30.1361 50.054C30.4588 50.054 30.6971 49.999 30.8511 49.889C31.0051 49.7717 31.0821 49.6287 31.0821 49.46C31.0821 49.2913 31.0088 49.163 30.8621 49.075C30.7154 48.9797 30.4808 48.9027 30.1581 48.844L29.8501 48.789C29.4688 48.7157 29.1204 48.6167 28.8051 48.492C28.4898 48.36 28.2368 48.1803 28.0461 47.953C27.8554 47.7257 27.7601 47.4323 27.7601 47.073C27.7601 46.5303 27.9581 46.116 28.3541 45.83C28.7501 45.5367 29.2708 45.39 29.9161 45.39C30.5248 45.39 31.0308 45.5257 31.4341 45.797C31.8374 46.0683 32.1014 46.424 32.2261 46.864L30.9391 47.26C30.8804 46.9813 30.7594 46.7833 30.5761 46.666C30.4001 46.5487 30.1801 46.49 29.9161 46.49C29.6521 46.49 29.4504 46.5377 29.3111 46.633C29.1718 46.721 29.1021 46.8457 29.1021 47.007C29.1021 47.183 29.1754 47.315 29.3221 47.403C29.4688 47.4837 29.6668 47.546 29.9161 47.59L30.2241 47.645C30.6348 47.7183 31.0051 47.8173 31.3351 47.942C31.6724 48.0593 31.9364 48.2317 32.1271 48.459C32.3251 48.679 32.4241 48.9797 32.4241 49.361C32.4241 49.933 32.2151 50.3767 31.7971 50.692C31.3864 51 30.8328 51.154 30.1361 51.154ZM33.6387 51V45.544H35.0247V51H33.6387ZM34.3317 44.906C34.0823 44.906 33.8697 44.8253 33.6937 44.664C33.525 44.5027 33.4407 44.29 33.4407 44.026C33.4407 43.762 33.525 43.5493 33.6937 43.388C33.8697 43.2267 34.0823 43.146 34.3317 43.146C34.5883 43.146 34.801 43.2267 34.9697 43.388C35.1383 43.5493 35.2227 43.762 35.2227 44.026C35.2227 44.29 35.1383 44.5027 34.9697 44.664C34.801 44.8253 34.5883 44.906 34.3317 44.906ZM36.2965 48.294V48.118C36.2965 47.546 36.4102 47.0583 36.6375 46.655C36.8649 46.2443 37.1655 45.9327 37.5395 45.72C37.9209 45.5 38.3352 45.39 38.7825 45.39C39.2812 45.39 39.6589 45.478 39.9155 45.654C40.1722 45.83 40.3592 46.0133 40.4765 46.204H40.6745V45.544H42.0385V51.968C42.0385 52.342 41.9285 52.639 41.7085 52.859C41.4885 53.0863 41.1952 53.2 40.8285 53.2H37.1765V51.99H40.3445C40.5499 51.99 40.6525 51.88 40.6525 51.66V50.241H40.4545C40.3812 50.3583 40.2785 50.4793 40.1465 50.604C40.0145 50.7213 39.8385 50.8203 39.6185 50.901C39.3985 50.9817 39.1199 51.022 38.7825 51.022C38.3352 51.022 37.9209 50.9157 37.5395 50.703C37.1655 50.483 36.8649 50.1713 36.6375 49.768C36.4102 49.3573 36.2965 48.866 36.2965 48.294ZM39.1785 49.812C39.6039 49.812 39.9595 49.6763 40.2455 49.405C40.5315 49.1337 40.6745 48.7523 40.6745 48.261V48.151C40.6745 47.6523 40.5315 47.271 40.2455 47.007C39.9669 46.7357 39.6112 46.6 39.1785 46.6C38.7532 46.6 38.3975 46.7357 38.1115 47.007C37.8255 47.271 37.6825 47.6523 37.6825 48.151V48.261C37.6825 48.7523 37.8255 49.1337 38.1115 49.405C38.3975 49.6763 38.7532 49.812 39.1785 49.812ZM43.5752 51V43.3H44.9612V46.215H45.1592C45.2178 46.0977 45.3095 45.9803 45.4342 45.863C45.5588 45.7457 45.7238 45.6503 45.9292 45.577C46.1418 45.4963 46.4095 45.456 46.7322 45.456C47.1575 45.456 47.5278 45.555 47.8432 45.753C48.1658 45.9437 48.4152 46.2113 48.5912 46.556C48.7672 46.8933 48.8552 47.2893 48.8552 47.744V51H47.4692V47.854C47.4692 47.4433 47.3665 47.1353 47.1612 46.93C46.9632 46.7247 46.6772 46.622 46.3032 46.622C45.8778 46.622 45.5478 46.765 45.3132 47.051C45.0785 47.3297 44.9612 47.722 44.9612 48.228V51H43.5752ZM52.2931 51C51.9338 51 51.6404 50.89 51.4131 50.67C51.1931 50.4427 51.0831 50.142 51.0831 49.768V46.688H49.7191V45.544H51.0831V43.85H52.4691V45.544H53.9651V46.688H52.4691V49.526C52.4691 49.746 52.5718 49.856 52.7771 49.856H53.8331V51H52.2931ZM57.7487 48.294V48.118C57.7487 47.546 57.8623 47.0583 58.0897 46.655C58.317 46.2443 58.6177 45.9327 58.9917 45.72C59.373 45.5 59.7873 45.39 60.2347 45.39C60.7333 45.39 61.111 45.478 61.3677 45.654C61.6243 45.83 61.8113 46.0133 61.9287 46.204H62.1267V45.544H63.4907V51.968C63.4907 52.342 63.3807 52.639 63.1607 52.859C62.9407 53.0863 62.6473 53.2 62.2807 53.2H58.6287V51.99H61.7967C62.002 51.99 62.1047 51.88 62.1047 51.66V50.241H61.9067C61.8333 50.3583 61.7307 50.4793 61.5987 50.604C61.4667 50.7213 61.2907 50.8203 61.0707 50.901C60.8507 50.9817 60.572 51.022 60.2347 51.022C59.7873 51.022 59.373 50.9157 58.9917 50.703C58.6177 50.483 58.317 50.1713 58.0897 49.768C57.8623 49.3573 57.7487 48.866 57.7487 48.294ZM60.6307 49.812C61.056 49.812 61.4117 49.6763 61.6977 49.405C61.9837 49.1337 62.1267 48.7523 62.1267 48.261V48.151C62.1267 47.6523 61.9837 47.271 61.6977 47.007C61.419 46.7357 61.0633 46.6 60.6307 46.6C60.2053 46.6 59.8497 46.7357 59.5637 47.007C59.2777 47.271 59.1347 47.6523 59.1347 48.151V48.261C59.1347 48.7523 59.2777 49.1337 59.5637 49.405C59.8497 49.6763 60.2053 49.812 60.6307 49.812ZM66.7213 51.154C66.3327 51.154 65.9843 51.088 65.6763 50.956C65.3683 50.8167 65.1227 50.6187 64.9393 50.362C64.7633 50.098 64.6753 49.779 64.6753 49.405C64.6753 49.031 64.7633 48.7193 64.9393 48.47C65.1227 48.2133 65.372 48.0227 65.6873 47.898C66.01 47.766 66.3767 47.7 66.7873 47.7H68.2833V47.392C68.2833 47.1353 68.2027 46.9263 68.0413 46.765C67.88 46.5963 67.6233 46.512 67.2713 46.512C66.9267 46.512 66.67 46.5927 66.5013 46.754C66.3327 46.908 66.2227 47.1097 66.1713 47.359L64.8953 46.93C64.9833 46.6513 65.1227 46.3983 65.3133 46.171C65.5113 45.9363 65.7717 45.7493 66.0943 45.61C66.4243 45.4633 66.824 45.39 67.2933 45.39C68.012 45.39 68.5803 45.5697 68.9983 45.929C69.4163 46.2883 69.6253 46.809 69.6253 47.491V49.526C69.6253 49.746 69.728 49.856 69.9333 49.856H70.3733V51H69.4493C69.178 51 68.9543 50.934 68.7783 50.802C68.6023 50.67 68.5143 50.494 68.5143 50.274V50.263H68.3053C68.276 50.351 68.21 50.4683 68.1073 50.615C68.0047 50.7543 67.8433 50.879 67.6233 50.989C67.4033 51.099 67.1027 51.154 66.7213 51.154ZM66.9633 50.032C67.352 50.032 67.6673 49.9257 67.9093 49.713C68.1587 49.493 68.2833 49.2033 68.2833 48.844V48.734H66.8863C66.6297 48.734 66.428 48.789 66.2813 48.899C66.1347 49.009 66.0613 49.163 66.0613 49.361C66.0613 49.559 66.1383 49.7203 66.2923 49.845C66.4463 49.9697 66.67 50.032 66.9633 50.032ZM71.3867 51V43.3H72.7727V51H71.3867ZM74.3086 51V43.3H75.6946V51H74.3086ZM79.7164 51.154C79.1738 51.154 78.6934 51.0403 78.2754 50.813C77.8648 50.5783 77.5421 50.252 77.3074 49.834C77.0801 49.4087 76.9664 48.91 76.9664 48.338V48.206C76.9664 47.634 77.0801 47.139 77.3074 46.721C77.5348 46.2957 77.8538 45.9693 78.2644 45.742C78.6751 45.5073 79.1518 45.39 79.6944 45.39C80.2298 45.39 80.6954 45.511 81.0914 45.753C81.4874 45.9877 81.7954 46.3177 82.0154 46.743C82.2354 47.161 82.3454 47.6487 82.3454 48.206V48.679H78.3744C78.3891 49.053 78.5284 49.3573 78.7924 49.592C79.0564 49.8267 79.3791 49.944 79.7604 49.944C80.1491 49.944 80.4351 49.8597 80.6184 49.691C80.8018 49.5223 80.9411 49.3353 81.0364 49.13L82.1694 49.724C82.0668 49.9147 81.9164 50.1237 81.7184 50.351C81.5278 50.571 81.2711 50.7617 80.9484 50.923C80.6258 51.077 80.2151 51.154 79.7164 51.154ZM78.3854 47.645H80.9374C80.9081 47.3297 80.7798 47.0767 80.5524 46.886C80.3324 46.6953 80.0428 46.6 79.6834 46.6C79.3094 46.6 79.0124 46.6953 78.7924 46.886C78.5724 47.0767 78.4368 47.3297 78.3854 47.645ZM83.5791 51V45.544H84.9431V46.16H85.1411C85.2217 45.94 85.3537 45.7787 85.5371 45.676C85.7277 45.5733 85.9477 45.522 86.1971 45.522H86.8571V46.754H86.1751C85.8231 46.754 85.5334 46.8493 85.3061 47.04C85.0787 47.2233 84.9651 47.5093 84.9651 47.898V51H83.5791ZM88.5344 53.2V51.99H91.5044C91.7097 51.99 91.8124 51.88 91.8124 51.66V50.285H91.6144C91.5557 50.4097 91.4641 50.5343 91.3394 50.659C91.2147 50.7837 91.0461 50.8863 90.8334 50.967C90.6207 51.0477 90.3494 51.088 90.0194 51.088C89.5941 51.088 89.2201 50.9927 88.8974 50.802C88.5821 50.604 88.3364 50.3327 88.1604 49.988C87.9844 49.6433 87.8964 49.2473 87.8964 48.8V45.544H89.2824V48.69C89.2824 49.1007 89.3814 49.4087 89.5794 49.614C89.7847 49.8193 90.0744 49.922 90.4484 49.922C90.8737 49.922 91.2037 49.7827 91.4384 49.504C91.6731 49.218 91.7904 48.822 91.7904 48.316V45.544H93.1764V51.968C93.1764 52.342 93.0664 52.639 92.8464 52.859C92.6264 53.0863 92.3331 53.2 91.9664 53.2H88.5344Z" fill="currentColor"/>
<rect x="17.5" y="14.5" width="15" height="15" fill="white" stroke="black"/>
<rect x="59.5" y="6.5" width="15" height="15" fill="black" stroke="white"/>
<defs>
<linearGradient id="paint0_linear_321_2" x1="45.5" y1="0" x2="45.5" y2="38" gradientUnits="userSpaceOnUse">
<stop/>
<stop offset="1" stop-color="white"/>
</linearGradient>
</defs>
</svg>
